<?xml version="1.0" encoding="utf-8"?>
<!-- Uploaded to: SVG Repo, www.svgrepo.com, Generator: SVG Repo Mixer Tools -->
<svg width="800px" height="800px" viewBox="0 0 1024 1024" class="icon"  version="1.1" xmlns="http://www.w3.org/2000/svg"><path d="M358.4 348.16a154.88 94.72 0 1 0 309.76 0 154.88 94.72 0 1 0-309.76 0Z" fill="#486068" /><path d="M513.28 455.68c-93.44 0-167.68-47.36-167.68-107.52s72.96-107.52 167.68-107.52 167.68 47.36 167.68 107.52-72.96 107.52-167.68 107.52z m0-190.72c-76.8 0-142.08 37.12-142.08 81.92s65.28 81.92 142.08 81.92 142.08-37.12 142.08-81.92-65.28-81.92-142.08-81.92z" fill="#231C1C" /><path d="M929.28 893.44c0 12.8-10.24 24.32-24.32 24.32H134.4c-12.8 0-24.32-10.24-24.32-24.32V348.16c0-12.8 10.24-24.32 24.32-24.32h771.84c12.8 0 24.32 10.24 24.32 24.32v545.28z" fill="#D3AC51" /><path d="M904.96 930.56H134.4c-20.48 0-37.12-16.64-37.12-37.12V348.16c0-20.48 16.64-37.12 37.12-37.12h771.84c20.48 0 37.12 16.64 37.12 37.12v546.56c-1.28 19.2-17.92 35.84-38.4 35.84zM134.4 336.64c-6.4 0-11.52 5.12-11.52 11.52v546.56c0 6.4 5.12 11.52 11.52 11.52h771.84c6.4 0 11.52-5.12 11.52-11.52V348.16c0-6.4-5.12-11.52-11.52-11.52H134.4z" fill="#231C1C" /><path d="M691.2 846.08c0 12.8-10.24 24.32-24.32 24.32h-486.4c-12.8 0-24.32-10.24-24.32-24.32V395.52c0-12.8 10.24-24.32 24.32-24.32h486.4c12.8 0 24.32 10.24 24.32 24.32v450.56z" fill="#F8F4BC" /><path d="M668.16 883.2h-486.4c-20.48 0-37.12-16.64-37.12-37.12V395.52c0-20.48 16.64-37.12 37.12-37.12h486.4c20.48 0 37.12 16.64 37.12 37.12v450.56c-1.28 20.48-16.64 37.12-37.12 37.12z m-486.4-499.2c-6.4 0-11.52 5.12-11.52 11.52v450.56c0 6.4 5.12 11.52 11.52 11.52h486.4c6.4 0 11.52-5.12 11.52-11.52V395.52c0-6.4-5.12-11.52-11.52-11.52h-486.4z" fill="#231C1C" /><path d="M323.84 725.76l-66.56-92.16H204.8v-25.6h66.56l52.48 74.24 52.48-74.24h61.44l87.04-88.32 103.68 90.88-16.64 20.48-85.76-75.52-78.08 78.08h-58.88zM739.84 430.08h142.08v25.6H739.84zM739.84 477.44h142.08v25.6H739.84zM739.84 382.72h142.08v25.6H739.84z" fill="#231C1C" /><path d="M810.24 787.2m-58.88 0a58.88 58.88 0 1 0 117.76 0 58.88 58.88 0 1 0-117.76 0Z" fill="#B8CA43" /><path d="M810.24 858.88c-39.68 0-71.68-32-71.68-71.68s32-71.68 71.68-71.68 71.68 32 71.68 71.68-32 71.68-71.68 71.68z m0-119.04c-25.6 0-46.08 20.48-46.08 46.08s20.48 46.08 46.08 46.08 46.08-20.48 46.08-46.08-20.48-46.08-46.08-46.08z" fill="#231C1C" /><path d="M766.0928 813.5936l71.5008-71.5008 18.0992 18.0992-71.5008 71.5008z" fill="#231C1C" /><path d="M338.7392 107.3408l18.0992-18.0992 154.7648 154.7776-18.0992 18.0992z" fill="#231C1C" /><path d="M516.6976 243.2256L671.488 88.448l18.0992 18.112-154.7776 154.752z" fill="#231C1C" /></svg>