<?xml version="1.0" encoding="utf-8"?>
<!-- Uploaded to: SVG Repo, www.svgrepo.com, Generator: SVG Repo Mixer Tools -->
<svg width="800px" height="800px" viewBox="0 0 1024 1024" class="icon"  version="1.1" xmlns="http://www.w3.org/2000/svg"><path d="M93.44 514.56a398.08 398.08 0 1 0 796.16 0 398.08 398.08 0 1 0-796.16 0Z" fill="#68AC9B" /><path d="M491.52 926.72C264.96 926.72 80.64 742.4 80.64 515.84c0-226.56 184.32-410.88 410.88-410.88 226.56 0 410.88 184.32 410.88 410.88-1.28 225.28-184.32 410.88-410.88 410.88z m0-797.44c-212.48 0-385.28 172.8-385.28 385.28s172.8 385.28 385.28 385.28 385.28-172.8 385.28-385.28S704 129.28 491.52 129.28z" fill="#231C1C" /><path d="M183.04 514.56a307.2 307.2 0 1 0 614.4 0 307.2 307.2 0 1 0-614.4 0Z" fill="#E1E0A6" /><path d="M490.24 834.56c-176.64 0-320-143.36-320-320s143.36-320 320-320 320 143.36 320 320-143.36 320-320 320z m0-614.4c-162.56 0-294.4 131.84-294.4 294.4s131.84 294.4 294.4 294.4 294.4-131.84 294.4-294.4-131.84-294.4-294.4-294.4z" fill="#231C1C" /><path d="M477.44 234.24h25.6v35.84h-25.6zM477.44 759.04h25.6v35.84h-25.6zM734.72 501.76h35.84v25.6h-35.84zM209.92 501.76h35.84v25.6h-35.84zM491.52 564.48c-28.16 0-51.2-23.04-51.2-51.2s23.04-51.2 51.2-51.2 51.2 23.04 51.2 51.2-23.04 51.2-51.2 51.2z m0-75.52c-14.08 0-25.6 11.52-25.6 25.6s11.52 25.6 25.6 25.6 25.6-11.52 25.6-25.6-11.52-25.6-25.6-25.6z" fill="#231C1C" /><path d="M509.4272 478.6304l159.296-159.296 18.0992 18.0992-159.296 159.296z" fill="#231C1C" /><path d="M477.44 551.68h25.6v128h-25.6z" fill="#231C1C" /><path d="M318.6304 359.1296l18.0992-18.0992L500.544 504.832l-18.0992 18.0992z" fill="#BD3018" /></svg>